HIERARCHY
ROOT Hips
{
	OFFSET 0.000000 0.000000 0.000000
	CHANNELS 6 Xposition Yposition Zposition Zrotation Yrotation Xrotation
	JOINT LHipJoint
	{
		OFFSET 0.000000 0.000000 0.000000
		CHANNELS 3 Zrotation Yrotation Xrotation
		JOINT LeftHip
		{
			OFFSET 0.070429 -0.092715 0.040477
			CHANNELS 3 Zrotation Yrotation Xrotation
			JOINT LeftKnee
			{
				OFFSET 0.140731 -0.386656 0.000000
				CHANNELS 3 Zrotation Yrotation Xrotation
				JOINT LeftAnkle
				{
					OFFSET 0.133642 -0.367180 0.000000
					CHANNELS 3 Zrotation Yrotation Xrotation
					JOINT LeftToe
					{
						OFFSET 0.008365 -0.022983 0.124964
						CHANNELS 3 Zrotation Yrotation Xrotation
						End Site
						{
							OFFSET 0.000000 0.000000 0.064059
						}
					}
				}
			}
		}
	}
	JOINT RHipJoint
	{
		OFFSET 0.000000 0.000000 0.000000
		CHANNELS 3 Zrotation Yrotation Xrotation
		JOINT RightHip
		{
			OFFSET -0.066785 -0.092715 0.040477
			CHANNELS 3 Zrotation Yrotation Xrotation
			JOINT RightKnee
			{
				OFFSET -0.139168 -0.382361 0.000000
				CHANNELS 3 Zrotation Yrotation Xrotation
				JOINT RightAnkle
				{
					OFFSET -0.134591 -0.369785 0.000000
					CHANNELS 3 Zrotation Yrotation Xrotation
					JOINT RightToe
					{
						OFFSET -0.009852 -0.027067 0.114539
						CHANNELS 3 Zrotation Yrotation Xrotation
						End Site
						{
							OFFSET 0.000000 0.000000 0.059309
						}
					}
				}
			}
		}
	}
	JOINT lowerback
	{
		OFFSET 0.000000 0.000000 0.000000
		CHANNELS 3 Zrotation Yrotation Xrotation
		JOINT Chest
		{
			OFFSET -0.001301 0.112132 0.000180
			CHANNELS 3 Zrotation Yrotation Xrotation
			JOINT Chest2
			{
				OFFSET -0.000405 0.112342 -0.000301
				CHANNELS 3 Zrotation Yrotation Xrotation
				JOINT lowerneck
				{
					OFFSET 0.000000 0.000000 0.000000
					CHANNELS 3 Zrotation Yrotation Xrotation
					JOINT Neck
					{
						OFFSET 0.000054 0.090883 0.006038
						CHANNELS 3 Zrotation Yrotation Xrotation
						JOINT Head
						{
							OFFSET -0.000598 0.090268 0.000743
							CHANNELS 3 Zrotation Yrotation Xrotation
							End Site
							{
								OFFSET -0.000259 0.092175 -0.000334
							}
						}
					}
				}
				JOINT LeftCollar
				{
					OFFSET 0.000000 0.000000 0.000000
					CHANNELS 3 Zrotation Yrotation Xrotation
					JOINT LeftShoulder
					{
						OFFSET 0.172369 0.083022 -0.000958
						CHANNELS 3 Zrotation Xrotation Yrotation
						JOINT LeftElbow
						{
							OFFSET 0.000000 -0.239947 0.000000
							CHANNELS 3 Zrotation Xrotation Yrotation
							JOINT LeftWrist
							{
								OFFSET 0.000000 -0.184906 0.000000
								CHANNELS 3 Zrotation Xrotation Yrotation
								JOINT lhand
								{
									OFFSET 0.000000 0.000000 0.000000
									CHANNELS 3 Zrotation Xrotation Yrotation
									JOINT LFingers
									{
										OFFSET 0.000000 -0.037129 0.000000
										CHANNELS 3 Zrotation Xrotation Yrotation
										End Site
										{
											OFFSET 0.000000 -0.029935 0.000000
										}
									}
								}
								JOINT LThumb
								{
									OFFSET 0.000000 0.000000 0.000000
									CHANNELS 3 Zrotation Xrotation Yrotation
									End Site
									{
										OFFSET 0.000000 -0.030392 0.030392
									}
								}
							}
						}
					}
				}
				JOINT RightCollar
				{
					OFFSET 0.000000 0.000000 0.000000
					CHANNELS 3 Zrotation Yrotation Xrotation
					JOINT RightShoulder
					{
						OFFSET -0.160129 0.074291 -0.012798
						CHANNELS 3 Zrotation Xrotation Yrotation
						JOINT RightElbow
						{
							OFFSET 0.000000 -0.251781 0.000000
							CHANNELS 3 Zrotation Xrotation Yrotation
							JOINT RightWrist
							{
								OFFSET 0.000000 -0.194402 0.000000
								CHANNELS 3 Zrotation Xrotation Yrotation
								JOINT rhand
								{
									OFFSET 0.000000 0.000000 0.000000
									CHANNELS 3 Zrotation Xrotation Yrotation
									JOINT RFingers
									{
										OFFSET 0.000000 -0.034798 0.000000
										CHANNELS 3 Zrotation Xrotation Yrotation
										End Site
										{
											OFFSET 0.000000 -0.028055 0.000000
										}
									}
								}
								JOINT RThumb
								{
									OFFSET 0.000000 0.000000 0.000000
									CHANNELS 3 Zrotation Xrotation Yrotation
									End Site
									{
										OFFSET 0.000000 -0.028484 0.028484
									}
								}
							}
						}
					}
				}
			}
		}
	}
}
MOTION
Frames: 9
Frame Time: 0.008333
0.295202 0.953915 -1.913373 -5.402899 9.809800 10.495600 -0.000003 -0.000000 0.000002 -5.943300 -1.185408 -30.310792 6.366408 14.774199 46.435004 0.480994 7.472200 -17.916297 0.204997 -2.915605 -8.043903 -0.000002 -0.000003 0.000001 24.362706 1.458402 -24.662901 -2.871385 -10.483898 30.558396 -0.702208 -8.687012 -21.282099 -4.946589 -13.323414 40.591500 2.860599 2.167601 -1.967400 3.539700 2.795699 -0.021402 2.110699 1.407300 1.040299 -2.255999 -1.413399 -4.540600 -1.732800 -1.856600 -5.915199 -0.167300 -0.860100 -1.058200 0.000001 0.000001 -0.000001 12.313013 8.928318 -72.425502 101.548090 -59.489991 69.983833 -6.767704 -36.703019 -19.010488 0.000000 -0.000003 -0.000001 -7.125004 0.000000 0.000001 -32.460392 46.185924 1.062277 -0.000000 0.000001 0.000000 -3.982603 3.884508 37.804301 -18.215906 -28.432811 -4.651607 -24.945208 26.699809 17.192105 -0.000002 -0.000003 0.000001 7.125004 -0.000001 -0.000000 2.908393 48.799407 -0.272792 
0.294801 0.956331 -1.909879 -4.991200 9.232201 9.976400 -0.000002 -0.000002 0.000002 -6.637008 -0.689608 -29.832292 6.533014 14.925705 47.085207 0.370896 8.243395 -17.342701 0.060399 -1.586204 -4.363301 0.000001 -0.000000 0.000003 24.105505 0.079804 -23.605704 -2.672888 -10.145700 29.449798 -0.603307 -8.375712 -20.036800 -4.607591 -12.927814 39.098895 2.810500 2.224899 -2.077300 3.365500 2.849100 0.391301 1.977900 1.436498 1.531499 -2.370300 -1.543198 -4.501199 -1.628100 -2.031101 -6.289201 -0.115600 -0.940101 -1.179000 -0.000001 -0.000001 -0.000000 11.871511 8.862113 -71.581298 97.745990 -59.772085 66.703129 -4.928104 -34.365106 -19.244586 -0.000001 0.000000 0.000002 -7.125007 -0.000001 0.000001 -31.026489 46.628913 1.378275 -0.000000 -0.000001 -0.000000 -4.122403 3.796407 37.932299 -18.340909 -28.591512 -4.711207 -25.049604 26.672406 17.185304 -0.000000 0.000002 -0.000004 7.125004 0.000002 -0.000006 2.805392 48.808409 -0.263702 
0.292504 0.956286 -1.907892 -5.666200 8.341501 9.128899 -0.000001 -0.000001 0.000001 -5.895302 0.270191 -29.692595 6.813211 15.172500 48.164110 0.290595 8.747799 -16.864400 0.016398 -0.828002 -2.275700 0.000003 -0.000001 0.000001 24.942811 0.971707 -22.093008 -2.599985 -10.017500 29.033304 -0.693308 -8.079111 -20.678504 -5.165290 -13.567515 41.531898 3.303399 2.424500 -1.503701 3.578999 3.115800 0.737500 1.916000 1.574601 1.577200 -2.420899 -1.659301 -4.589100 -1.610300 -2.186100 -6.534800 -0.102000 -1.013300 -1.240400 -0.000001 -0.000001 -0.000001 11.366813 8.771115 -70.684398 93.704895 -59.948092 63.208039 -3.173498 -31.914902 -18.225487 -0.000001 0.000002 -0.000001 -7.125006 0.000002 -0.000002 -29.014295 45.968519 0.757675 -0.000002 -0.000000 -0.000001 -4.208401 3.841907 37.977498 -18.497112 -28.789012 -4.786208 -25.002411 26.842712 17.245109 -0.000002 0.000000 -0.000000 7.125002 -0.000001 -0.000000 2.863591 48.865506 -0.273193 
0.291223 0.957070 -1.908603 -5.070700 8.901600 9.502100 -0.000002 -0.000003 0.000001 -6.603502 -0.570306 -30.694802 7.070515 15.391001 49.140605 0.184699 9.533499 -16.363103 0.010100 0.648902 1.783202 0.000002 0.000003 0.000003 24.495403 -0.043895 -22.587002 -2.519989 -9.874198 28.570301 -0.577707 -8.460910 -19.850695 -4.723991 -13.066109 39.616494 3.047301 2.155200 -1.478100 3.432100 2.771697 0.600702 1.891699 1.399499 1.419700 -2.461500 -1.781900 -4.400299 -1.623599 -2.364301 -6.916400 -0.096100 -1.094298 -1.391400 0.000001 -0.000001 -0.000002 10.809912 8.668714 -69.863901 89.271406 -59.997987 59.369042 -1.707498 -29.534605 -17.819282 -0.000003 -0.000001 0.000004 -7.125006 -0.000001 0.000002 -27.563097 45.794318 0.585177 -0.000004 -0.000001 -0.000001 -4.475303 3.525306 38.226397 -18.436308 -28.712210 -4.757008 -25.086814 26.611810 17.299805 -0.000000 0.000002 -0.000000 7.125006 0.000000 0.000000 2.792493 48.937807 -0.271392 
0.289366 0.957206 -1.908552 -5.288800 8.633800 9.229500 -0.000001 -0.000001 0.000003 -6.505301 -0.424502 -31.146998 7.347707 15.617803 50.177401 0.197197 9.542096 -16.539300 0.129200 2.316801 6.382001 0.000001 -0.000000 0.000003 24.836801 0.376104 -22.025005 -2.470487 -9.783999 28.280006 -0.576707 -8.665013 -20.023803 -4.795287 -13.149513 39.930495 3.156800 2.211900 -1.297302 3.581798 2.842600 0.830299 1.985600 1.436900 1.551600 -2.522500 -1.869899 -4.280099 -1.605700 -2.493801 -7.385902 -0.076800 -1.149500 -1.559499 0.000001 0.000002 0.000000 10.294013 7.927117 -69.456310 84.785208 -59.896982 55.485448 -0.092292 -27.619009 -18.781390 0.000000 -0.000002 -0.000002 -7.125002 0.000001 -0.000001 -26.616484 46.858424 1.311375 -0.000000 0.000001 0.000000 -4.697604 3.212506 38.088396 -18.471509 -28.756609 -4.773904 -25.132111 26.621011 17.442906 -0.000001 -0.000001 -0.000000 7.125006 -0.000002 0.000000 2.777589 49.099508 -0.280990 
0.287740 0.957482 -1.908140 -5.297700 8.450800 9.024101 -0.000005 -0.000000 0.000002 -6.605200 -0.396808 -31.550300 7.603208 15.819498 51.120308 0.176095 9.638497 -16.372296 0.297703 3.508307 9.697299 0.000001 -0.000003 0.000000 24.959907 0.433307 -21.658504 -2.443387 -9.734199 28.120101 -0.578712 -8.673413 -20.052295 -4.819488 -13.177612 40.037100 3.196501 2.197800 -1.084202 3.630999 2.827800 0.968000 2.008400 1.430099 1.573199 -2.578399 -1.959101 -4.189201 -1.585400 -2.622001 -7.739104 -0.058200 -1.206200 -1.686600 0.000001 -0.000000 -0.000000 9.774415 7.620517 -68.769302 80.627111 -59.665377 51.892048 1.538505 -25.396305 -19.113388 0.000002 -0.000001 0.000000 -7.125004 -0.000000 -0.000002 -25.338692 47.373116 1.581274 -0.000004 0.000000 0.000001 -4.895500 3.018708 38.106496 -18.512212 -28.808013 -4.793510 -25.182113 26.584411 17.519208 -0.000001 0.000000 0.000000 7.125004 0.000000 0.000001 2.744495 49.190012 -0.283790 
0.286109 0.957685 -1.907858 -5.313700 8.281199 8.845999 -0.000003 -0.000000 0.000002 -6.712404 -0.407508 -31.943490 7.834813 15.996399 51.965606 0.180099 9.448193 -16.200500 0.475203 4.421004 12.264098 0.000001 -0.000001 0.000004 25.088904 0.582304 -21.276905 -2.407787 -9.668298 27.908998 -0.579005 -8.750212 -20.125395 -4.863988 -13.228914 40.231597 3.223301 2.175500 -0.854700 3.686800 2.804900 1.074100 2.043299 1.418998 1.552299 -2.633199 -2.032001 -4.094201 -1.564500 -2.727900 -8.058803 -0.039400 -1.252202 -1.804400 0.000002 -0.000000 -0.000001 9.249213 7.365616 -68.068402 76.632612 -59.313882 48.450251 3.165604 -23.176302 -19.534093 0.000001 -0.000001 0.000003 -7.125001 -0.000001 0.000004 -24.087482 47.976212 1.870970 -0.000002 0.000000 -0.000001 -5.091504 2.843005 38.109095 -18.544708 -28.849015 -4.809206 -25.221915 26.534209 17.579609 -0.000002 0.000001 -0.000001 7.125002 0.000001 0.000001 2.717890 49.261606 -0.285792 
0.284608 0.957883 -1.907508 -5.286100 8.109400 8.709400 -0.000003 0.000003 0.000000 -6.894302 -0.463008 -32.292895 8.035512 16.145300 52.690603 0.210196 8.927697 -16.007798 0.614505 5.017100 13.957198 0.000003 -0.000001 0.000001 25.158508 0.739500 -20.950207 -2.380487 -9.617299 27.746103 -0.579809 -8.825911 -20.202199 -4.885087 -13.253212 40.323695 3.220501 2.145299 -0.655600 3.724499 2.771901 1.149899 2.076500 1.402300 1.516800 -2.692000 -2.086900 -3.995300 -1.534500 -2.808799 -8.335602 -0.017100 -1.286399 -1.909501 -0.000001 -0.000001 0.000000 8.722512 7.193414 -67.335406 72.862211 -58.860590 45.215050 4.920407 -20.946800 -19.639997 0.000000 0.000000 -0.000001 -7.125004 0.000000 -0.000002 -22.555486 48.317520 1.937775 -0.000002 -0.000001 0.000000 -5.280704 2.693805 38.108996 -18.566708 -28.876810 -4.819810 -25.271015 26.481210 17.625206 0.000001 0.000000 -0.000001 7.125004 0.000000 0.000000 2.679393 49.318815 -0.285492 
0.283236 0.958052 -1.906932 -5.260000 7.875501 8.575499 -0.000002 -0.000001 0.000003 -7.100502 -0.493407 -32.549495 8.199011 16.263700 53.276305 0.264194 8.045799 -15.778703 0.667307 5.224197 14.549193 -0.000001 -0.000000 0.000003 25.214405 0.965505 -20.602907 -2.359290 -9.577499 27.619306 -0.586008 -8.883112 -20.317801 -4.910489 -13.282315 40.434498 3.219400 2.125600 -0.482499 3.754701 2.752301 1.211500 2.102099 1.392199 1.481800 -2.752900 -2.125001 -3.909101 -1.499700 -2.865300 -8.556200 0.006700 -1.309399 -1.994600 -0.000001 -0.000000 -0.000001 8.196411 7.108517 -66.555604 69.333230 -58.322985 42.202844 6.682806 -18.776303 -19.516897 -0.000001 0.000002 -0.000002 -7.125006 0.000003 -0.000000 -20.897285 48.451320 1.854168 -0.000004 -0.000001 -0.000000 -5.455501 2.587104 38.102893 -18.584506 -28.899111 -4.828406 -25.322112 26.447609 17.658807 -0.000003 0.000000 0.000001 7.125004 -0.000002 -0.000003 2.636190 49.363205 -0.283793 
